<svg width="50" height="50" viewBox="0 0 50 50" fill="none" xmlns="http://www.w3.org/2000/svg">
<path fill-rule="evenodd" clip-rule="evenodd" d="M3.39618 12.9954L9.05103 22.9896H20.3607L26.0156 12.9954L20.3607 3.00116H9.05103L3.39618 12.9954ZM7.35294 0L0 12.9954L7.35294 25.9908H22.0588L29.4118 12.9954L22.0588 0H7.35294Z" fill="#F0B62B"/>
<path fill-rule="evenodd" clip-rule="evenodd" d="M23.9844 25L29.6393 34.9942H40.949L46.6038 25L40.949 15.0058H29.6393L23.9844 25ZM27.9412 12.0046L20.5882 25L27.9412 37.9954H42.6471L50 25L42.6471 12.0046H27.9412Z" fill="#F0B62B"/>
<path fill-rule="evenodd" clip-rule="evenodd" d="M3.39618 37.0046L9.05103 46.9988H20.3607L26.0156 37.0046L20.3607 27.0104H9.05103L3.39618 37.0046ZM7.35294 24.0092L0 37.0046L7.35294 50H22.0588L29.4118 37.0046L22.0588 24.0092H7.35294Z" fill="#F0B62B"/>
</svg>
