<svg width="40" height="40" viewBox="0 0 40 40" fill="none" xmlns="http://www.w3.org/2000/svg">
<path d="M4.71648 27.4811C7.48753 30.2553 11.1777 31.9206 15.0918 32.1635C19.0059 32.4063 22.8737 31.2098 25.9666 28.7995L36.6086 39.4384C36.9861 39.8028 37.4916 40.0045 38.0162 39.9999C38.5409 39.9954 39.0428 39.785 39.4139 39.4141C39.7849 39.0431 39.9954 38.5414 39.9999 38.0168C40.0045 37.4923 39.8028 36.9869 39.4383 36.6096L28.7962 25.9707C31.3142 22.7401 32.5047 18.671 32.1249 14.5931C31.745 10.5152 29.8234 6.73575 26.752 4.02554C23.6806 1.31533 19.6907 -0.121508 15.596 0.00805884C11.5013 0.137626 7.6103 1.82384 4.71648 4.72281C3.22122 6.21687 2.03507 7.99081 1.2258 9.94328C0.416534 11.8958 0 13.9885 0 16.102C0 18.2154 0.416534 20.3082 1.2258 22.2606C2.03507 24.2131 3.22122 25.9871 4.71648 27.4811ZM7.54609 7.55559C9.52436 5.57794 12.1273 4.34719 14.9115 4.07302C17.6957 3.79886 20.4889 4.49824 22.8151 6.05202C25.1413 7.6058 26.8567 9.91784 27.669 12.5942C28.4812 15.2706 28.3401 18.1457 27.2697 20.7298C26.1992 23.3138 24.2657 25.4468 21.7985 26.7655C19.3313 28.0841 16.483 28.5068 13.7391 27.9615C10.9951 27.4161 8.52513 25.9365 6.75003 23.7748C4.97492 21.613 4.00449 18.9028 4.00407 16.106C3.99858 14.5167 4.30885 12.9421 4.91689 11.4736C5.52492 10.0052 6.4186 8.67204 7.54609 7.55159V7.55559Z" fill="#F0B62B"/>
</svg>
